#!OML:ASF F:\VICON\USERDATA\INSTALL\rory3\rory3.ASF
:FULLY-SPECIFIED
:DEGREES
1
root 0.05211 18.7423 7.09761 -2.15771 12.6451 -2.75548
lowerback 2.46232 4.63013 -1.63334
upperback -0.485281 6.05157 -5.88195
thorax -1.406 3.03176 -5.37137
lowerneck -14.0587 -3.40613 -8.24321
upperneck 3.3357 -3.84812 10.3034
head 3.64337 -1.50479 4.24065
rclavicle -7.05686e-015 -4.77083e-014
rhumerus 20.0111 -34.0943 -50.4669
rradius 70.8659
rwrist 8.48012
rhand -54.4747 11.7447
rfingers 7.12502
rthumb -26.8776 -16.3646
lclavicle -7.05686e-015 -4.77083e-014
lhumerus -33.3136 21.5764 57.1879
lradius 17.0464
lwrist -11.8629
lhand -28.1989 27.6307
lfingers 7.12502
lthumb -1.57799 57.6046
rfemur 6.24753 5.79738 20.1565
rtibia 18.598
rfoot -20.3108 -34.8513
rtoes -8.65066
lfemur -7.83811 -13.8776 -8.28739
ltibia 20.6523
lfoot -11.213 5.13831
ltoes -12.3217
2
root 0.0655101 18.7417 7.10669 -2.3658 13.0694 -2.94094
lowerback 2.55255 4.58268 -1.58608
upperback -0.482228 5.98595 -5.81172
thorax -1.46131 2.99793 -5.33092
lowerneck -14.0599 -3.34931 -8.06707
upperneck 3.46523 -3.80416 10.2038
head 3.67279 -1.48423 4.18394
rclavicle 2.3556e-014 -3.18055e-014
rhumerus 20.0552 -34.2351 -50.1963
rradius 70.6744
rwrist 8.68498
rhand -54.5012 11.1294
rfingers 7.12502
rthumb -26.903 -16.976
lclavicle 2.3556e-014 -3.18055e-014
lhumerus -33.3408 22.241 56.8453
lradius 16.7643
lwrist -12.4799
lhand -28.1327 27.2924
lfingers 7.12502
lthumb -1.51405 57.2668
rfemur 6.49412 5.54859 20.2735
rtibia 18.675
rfoot -20.1404 -34.6942
rtoes -8.87298
lfemur -7.92469 -13.6207 -8.1601
ltibia 21.0568
lfoot -11.4073 5.46231
ltoes -12.6408
3
root 0.0759154 18.7408 7.11116 -2.63574 13.5371 -3.03889
lowerback 2.79256 4.50799 -1.63913
upperback -0.435066 5.87521 -5.74194
thorax -1.56848 2.94196 -5.24535
lowerneck -14.279 -3.32166 -8.19899
upperneck 3.83436 -3.76997 10.3877
head 3.82396 -1.45089 4.26589
rclavicle -6.70898e-014 1.59028e-014
rhumerus 20.3282 -34.4146 -50.0735
rradius 70.4677
rwrist 9.05753
rhand -54.4192 10.3155
rfingers 7.12502
rthumb -26.8245 -17.8019
lclavicle -6.70898e-014 1.59028e-014
lhumerus -33.3951 22.6829 56.6548
lradius 16.6596
lwrist -12.7706
lhand -28.0286 26.7687
lfingers 7.12502
lthumb -1.41356 56.7438
rfemur 6.7971 5.34367 20.3394
rtibia 18.7949
rfoot -20.0696 -34.6371
rtoes -9.09108
lfemur -7.85557 -13.3731 -8.12452
ltibia 21.3121
lfoot -11.6935 6.14302
ltoes -13.3049
4
root 0.0893824 18.7411 7.12054 -2.82584 13.8762 -3.14745
lowerback 2.82732 4.47094 -1.74441
upperback -0.386601 5.82346 -5.6384
thorax -1.56324 2.91688 -5.07762
lowerneck -14.5196 -3.29303 -8.32361
upperneck 4.19995 -3.73098 10.5316
head 3.97594 -1.41635 4.33506
rclavicle 2.21645e-014 6.99722e-014
rhumerus 20.4879 -34.4833 -49.8401
rradius 70.2702
rwrist 9.22403
rhand -54.4784 10.7585
rfingers 7.12502
rthumb -26.8812 -17.3502
lclavicle 2.21645e-014 6.99722e-014
lhumerus -33.4515 22.9012 56.5849
lradius 16.5889
lwrist -12.8293
lhand -28.0462 26.4006
lfingers 7.12502
lthumb -1.43052 56.3756
rfemur 7.01423 5.178 20.4129
rtibia 18.9237
rfoot -19.9991 -34.5774
rtoes -9.4041
lfemur -7.81865 -13.0873 -8.05602
ltibia 21.5658
lfoot -12.0959 7.09704
ltoes -13.6244
5
root 0.106366 18.742 7.13703 -2.96825 14.1177 -3.22556
lowerback 2.76317 4.45194 -1.89364
upperback -0.382437 5.79658 -5.57274
thorax -1.54668 2.90439 -4.91944
lowerneck -14.5381 -3.25661 -8.14231
upperneck 4.38356 -3.7125 10.3554
head 4.02507 -1.41142 4.25124
rclavicle -2.0276e-014 -6.36111e-015
rhumerus 20.4106 -34.4277 -49.5409
rradius 70.184
rwrist 9.20401
rhand -54.5817 11.0127
rfingers 7.12502
rthumb -26.98 -17.0808
lclavicle -2.0276e-014 -6.36111e-015
lhumerus -33.5677 22.91 56.4923
lradius 16.5701
lwrist -12.6747
lhand -28.1129 26.3325
lfingers 7.12502
lthumb -1.49496 56.307
rfemur 7.21009 4.92069 20.4217
rtibia 19.0569
rfoot -19.8697 -34.3691
rtoes -9.8021
lfemur -7.72217 -12.6458 -8.00338
ltibia 21.762
lfoot -12.5815 7.8764
ltoes -12.9991
6
root 0.125865 18.7438 7.15624 -3.11133 14.3453 -3.25893
lowerback 2.7159 4.43602 -1.9846
upperback -0.413096 5.77292 -5.5779
thorax -1.562 2.89291 -4.87118
lowerneck -14.4617 -3.23104 -8.14536
upperneck 4.57278 -3.70021 10.392
head 4.07025 -1.40405 4.26523
rclavicle 7.95636e-014 6.36111e-015
rhumerus 20.2127 -34.3296 -49.2474
rradius 70.0672
rwrist 9.31838
rhand -54.7448 11.5152
rfingers 7.12502
rthumb -27.136 -16.554
lclavicle 7.95636e-014 6.36111e-015
lhumerus -33.6919 22.9165 56.2727
lradius 16.5245
lwrist -12.4063
lhand -28.0469 26.3327
lfingers 7.12502
lthumb -1.43124 56.3077
rfemur 7.40483 4.72813 20.3871
rtibia 19.1884
rfoot -19.7425 -34.2547
rtoes -10.2095
lfemur -7.55295 -12.0062 -8.00471
ltibia 21.9148
lfoot -12.9423 8.40505
ltoes -12.3611
7
root 0.149891 18.7464 7.17616 -3.24153 14.6228 -3.16233
lowerback 2.66089 4.39321 -2.16884
upperback -0.42768 5.71141 -5.61151
thorax -1.56509 2.86346 -4.7981
lowerneck -14.5315 -3.16871 -8.31611
upperneck 4.81672 -3.6195 10.6319
head 4.15732 -1.3503 4.37715
rclavicle 3.7123e-014 0
rhumerus 20.0903 -34.1593 -48.9543
rradius 69.8291
rwrist 9.51668
rhand -54.9089 12.2094
rfingers 7.12502
rthumb -27.293 -15.8353
lclavicle 3.7123e-014 0
lhumerus -33.8345 22.8915 56.0722
lradius 16.4701
lwrist -12.1695
lhand -28.0517 26.3104
lfingers 7.12502
lthumb -1.43586 56.2853
rfemur 7.59538 4.62608 20.227
rtibia 19.3041
rfoot -19.491 -34.3901
rtoes -10.8216
lfemur -7.36534 -11.4087 -8.17617
ltibia 22.0601
lfoot -13.2403 8.91706
ltoes -11.6018
